<svg xmlns="http://www.w3.org/2000/svg" width="1280" height="520" viewBox="0 0 1280 520" role="img" aria-label="v0.5.0 Final Improvement Percentage"><rect width="100%" height="100%" fill="#FFFFFF"/><text x="82" y="34" font-size="24" font-weight="700" fill="#111827">v0.5.0 Final Improvement Percentage</text><text x="82" y="60" font-size="14" fill="#6B7280">Improvement = (before - final) / before. Higher is better.</text><rect x="602" y="30" width="18" height="12" rx="2" fill="#F97316"/><text x="628" y="41" font-size="13" fill="#111827">improvement %</text><line x1="82" x2="1246" y1="424" y2="424" stroke="#E5E7EB" stroke-width="1"/><text x="70" y="428" text-anchor="end" font-size="12" fill="#6B7280">0.0%</text><line x1="82" x2="1246" y1="356.4" y2="356.4" stroke="#E5E7EB" stroke-width="1"/><text x="70" y="360.4" text-anchor="end" font-size="12" fill="#6B7280">20.0%</text><line x1="82" x2="1246" y1="288.79999999999995" y2="288.79999999999995" stroke="#E5E7EB" stroke-width="1"/><text x="70" y="292.79999999999995" text-anchor="end" font-size="12" fill="#6B7280">40.0%</text><line x1="82" x2="1246" y1="221.20000000000002" y2="221.20000000000002" stroke="#E5E7EB" stroke-width="1"/><text x="70" y="225.20000000000002" text-anchor="end" font-size="12" fill="#6B7280">60.0%</text><line x1="82" x2="1246" y1="153.59999999999997" y2="153.59999999999997" stroke="#E5E7EB" stroke-width="1"/><text x="70" y="157.59999999999997" text-anchor="end" font-size="12" fill="#6B7280">80.0%</text><line x1="82" x2="1246" y1="86" y2="86" stroke="#E5E7EB" stroke-width="1"/><text x="70" y="90" text-anchor="end" font-size="12" fill="#6B7280">100.0%</text><line x1="82" x2="82" y1="86" y2="424" stroke="#9CA3AF"/><line x1="82" x2="1246" y1="424" y2="424" stroke="#9CA3AF"/><rect x="213.50" y="315.09" width="27.00" height="108.91" rx="2" fill="#F97316"/><text x="227.50" y="310.09" text-anchor="middle" font-size="10" fill="#111827">32.2%</text><text x="227.50" y="450" text-anchor="middle" font-size="12" fill="#111827">write avg</text><rect x="504.50" y="316.22" width="27.00" height="107.78" rx="2" fill="#F97316"/><text x="518.50" y="311.22" text-anchor="middle" font-size="10" fill="#111827">31.9%</text><text x="518.50" y="450" text-anchor="middle" font-size="12" fill="#111827">write p50</text><rect x="795.50" y="272.42" width="27.00" height="151.58" rx="2" fill="#F97316"/><text x="809.50" y="267.42" text-anchor="middle" font-size="10" fill="#111827">44.8%</text><text x="809.50" y="450" text-anchor="middle" font-size="12" fill="#111827">write max</text><rect x="1086.50" y="110.38" width="27.00" height="313.62" rx="2" fill="#F97316"/><text x="1100.50" y="105.38" text-anchor="middle" font-size="10" fill="#111827">92.8%</text><text x="1100.50" y="450" text-anchor="middle" font-size="12" fill="#111827">read avg</text><text x="82" y="502" font-size="12" fill="#6B7280">Color legend: blue=optimization-before baseline, green=2026-05-20 final retest, orange=improvement %, purple=preview, cyan=execute, red=preview+execute workflow, gray=final max/long-tail.</text></svg>
