<svg xmlns="http://www.w3.org/2000/svg" width="1320" height="560" viewBox="0 0 1320 560" role="img" aria-label="Specialized Optimization Improvement Percent"><rect width="100%" height="100%" fill="#FFFFFF"/><text x="86" y="34" font-size="24" font-weight="700" fill="#111827">Specialized Optimization Improvement Percent</text><text x="86" y="60" font-size="14" fill="#6B7280">Higher is better. Negative cases are omitted from this improvement-only chart.</text><rect x="646" y="30" width="18" height="12" rx="2" fill="#F97316"/><text x="672" y="41" font-size="13" fill="#111827">improvement %</text><line x1="86" x2="1284" y1="410" y2="410" stroke="#E5E7EB"/><text x="74" y="414" text-anchor="end" font-size="12" fill="#6B7280">0.0%</text><line x1="86" x2="1284" y1="346" y2="346" stroke="#E5E7EB"/><text x="74" y="350" text-anchor="end" font-size="12" fill="#6B7280">20.0%</text><line x1="86" x2="1284" y1="282" y2="282" stroke="#E5E7EB"/><text x="74" y="286" text-anchor="end" font-size="12" fill="#6B7280">40.0%</text><line x1="86" x2="1284" y1="218" y2="218" stroke="#E5E7EB"/><text x="74" y="222" text-anchor="end" font-size="12" fill="#6B7280">60.0%</text><line x1="86" x2="1284" y1="154" y2="154" stroke="#E5E7EB"/><text x="74" y="158" text-anchor="end" font-size="12" fill="#6B7280">80.0%</text><line x1="86" x2="1284" y1="90" y2="90" stroke="#E5E7EB"/><text x="74" y="94" text-anchor="end" font-size="12" fill="#6B7280">100.0%</text><line x1="86" x2="86" y1="90" y2="410" stroke="#9CA3AF"/><line x1="86" x2="1284" y1="410" y2="410" stroke="#9CA3AF"/><rect x="145.88" y="96.69" width="29.00" height="313.31" rx="2" fill="#F97316"/><text x="160.88" y="102.00" text-anchor="middle" font-size="10" fill="#111827">97.9%</text><text transform="translate(160.88 436) rotate(38)" text-anchor="start" font-size="12" fill="#111827">P1 compile</text><rect x="295.63" y="98.99" width="29.00" height="311.01" rx="2" fill="#F97316"/><text x="310.63" y="102.00" text-anchor="middle" font-size="10" fill="#111827">97.2%</text><text transform="translate(310.63 436) rotate(38)" text-anchor="start" font-size="12" fill="#111827">P4 partial</text><rect x="445.38" y="113.13" width="29.00" height="296.87" rx="2" fill="#F97316"/><text x="460.38" y="108.13" text-anchor="middle" font-size="10" fill="#111827">92.8%</text><text transform="translate(460.38 436) rotate(38)" text-anchor="start" font-size="12" fill="#111827">P4 call</text><rect x="595.13" y="113.15" width="29.00" height="296.85" rx="2" fill="#F97316"/><text x="610.13" y="108.15" text-anchor="middle" font-size="10" fill="#111827">92.8%</text><text transform="translate(610.13 436) rotate(38)" text-anchor="start" font-size="12" fill="#111827">P4 plan</text><rect x="744.88" y="129.22" width="29.00" height="280.78" rx="2" fill="#F97316"/><text x="759.88" y="124.22" text-anchor="middle" font-size="10" fill="#111827">87.7%</text><text transform="translate(759.88 436) rotate(38)" text-anchor="start" font-size="12" fill="#111827">P5 cluster</text><rect x="894.63" y="90.59" width="29.00" height="319.41" rx="2" fill="#F97316"/><text x="909.63" y="102.00" text-anchor="middle" font-size="10" fill="#111827">99.8%</text><text transform="translate(909.63 436) rotate(38)" text-anchor="start" font-size="12" fill="#111827">P5 spawn</text><rect x="1044.38" y="90.10" width="29.00" height="319.90" rx="2" fill="#F97316"/><text x="1059.38" y="102.00" text-anchor="middle" font-size="10" fill="#111827">100.0%</text><text transform="translate(1059.38 436) rotate(38)" text-anchor="start" font-size="12" fill="#111827">P6 04b save</text><rect x="1194.13" y="291.49" width="29.00" height="118.51" rx="2" fill="#F97316"/><text x="1209.13" y="286.49" text-anchor="middle" font-size="10" fill="#111827">37.0%</text><text transform="translate(1209.13 436) rotate(38)" text-anchor="start" font-size="12" fill="#111827">P6 14c compile</text><text x="86" y="542" font-size="12" fill="#6B7280">Color legend: blue=before/no-cache baseline, green=final optimized result, orange=improvement %, purple=UE route/stage, cyan=CLI total/wall, red=miss/necessary cost, gray=skipped/neutral.</text></svg>
